<svg width="19" height="20" viewBox="0 0 19 20" fill="none" xmlns="http://www.w3.org/2000/svg">
<path d="M2.5 4C2.5 4.026 2.51 4.17 2.792 4.42C3.072 4.668 3.536 4.938 4.194 5.185C5.504 5.675 7.38 6 9.5 6C11.62 6 13.497 5.676 14.806 5.185C15.464 4.938 15.927 4.668 16.208 4.419C16.49 4.17 16.5 4.026 16.5 4C16.5 3.974 16.49 3.83 16.208 3.58C15.928 3.332 15.464 3.062 14.806 2.815C13.496 2.325 11.62 2 9.5 2C7.38 2 5.503 2.324 4.194 2.815C3.536 3.062 3.073 3.332 2.792 3.581C2.51 3.83 2.5 3.974 2.5 4ZM0.5 4C0.5 3.197 0.937 2.552 1.465 2.084C1.995 1.615 2.703 1.238 3.492 0.942C5.078 0.347 7.202 0 9.5 0C11.798 0 13.922 0.347 15.508 0.942C16.298 1.238 17.006 1.615 17.535 2.084C18.062 2.552 18.5 3.197 18.5 4V16C18.5 16.803 18.062 17.448 17.535 17.916C17.005 18.385 16.297 18.762 15.508 19.058C13.922 19.653 11.798 20 9.5 20C7.202 20 5.078 19.652 3.492 19.058C2.702 18.762 1.994 18.385 1.465 17.916C0.937 17.448 0.5 16.803 0.5 16V4ZM2.5 8C2.5 8.025 2.51 8.17 2.792 8.42C3.072 8.668 3.536 8.938 4.194 9.185C5.504 9.675 7.38 10 9.5 10C11.62 10 13.497 9.676 14.806 9.185C15.464 8.938 15.927 8.668 16.208 8.419C16.49 8.169 16.5 8.025 16.5 8V6.616C16.1785 6.78317 15.8473 6.93077 15.508 7.058C13.922 7.653 11.798 8 9.5 8C7.202 8 5.078 7.653 3.492 7.058C3.15274 6.93077 2.82147 6.78317 2.5 6.616V8ZM2.5 10.616V12C2.5 12.025 2.51 12.17 2.792 12.42C3.072 12.668 3.536 12.938 4.194 13.185C5.504 13.675 7.38 14 9.5 14C11.62 14 13.497 13.676 14.806 13.185C15.464 12.938 15.927 12.668 16.208 12.419C16.49 12.169 16.5 12.025 16.5 12V10.616C16.1887 10.7793 15.858 10.9267 15.508 11.058C13.922 11.653 11.798 12 9.5 12C7.202 12 5.078 11.652 3.492 11.058C3.15274 10.9308 2.82147 10.7832 2.5 10.616ZM2.5 14.616V16C2.5 16.026 2.51 16.17 2.792 16.42C3.072 16.668 3.536 16.938 4.194 17.185C5.504 17.675 7.38 18 9.5 18C11.62 18 13.497 17.676 14.806 17.185C15.464 16.938 15.927 16.668 16.208 16.42C16.49 16.17 16.5 16.025 16.5 16V14.616C16.1887 14.7793 15.858 14.9267 15.508 15.058C13.922 15.653 11.798 16 9.5 16C7.202 16 5.078 15.652 3.492 15.058C3.15274 14.9308 2.82147 14.7832 2.5 14.616Z" fill="#424242"/>
</svg>
