<svg width="24" height="24" viewBox="0 0 24 24" fill="none" xmlns="http://www.w3.org/2000/svg">
<path d="M9.33333 5.77778H6.84444C5.84889 5.77778 5.35111 5.77778 4.97067 5.97156C4.63617 6.14199 4.36422 6.41395 4.19378 6.74844C4 7.12889 4 7.62667 4 8.62222V17.1556C4 18.1511 4 18.6489 4.19378 19.0293C4.36422 19.3638 4.63617 19.6358 4.97067 19.8062C5.35022 20 5.848 20 6.84178 20H15.3804C16.3742 20 16.8711 20 17.2507 19.8062C17.5858 19.6356 17.8578 19.3636 18.0284 19.0293C18.2222 18.6489 18.2222 18.152 18.2222 17.1582V14.6667M14.6667 6.66667L9.33333 12V14.6667H12L17.3333 9.33333M14.6667 6.66667L17.3333 4L20 6.66667L17.3333 9.33333M14.6667 6.66667L17.3333 9.33333" stroke="#242424" stroke-opacity="0.9" stroke-width="2" stroke-linecap="round" stroke-linejoin="round"/>
</svg>
